<?xml version="1.0" standalone="no"?><!-- Generator: Gravit.io --><svg xmlns="http://www.w3.org/2000/svg" xmlns:xlink="http://www.w3.org/1999/xlink" style="isolation:isolate" viewBox="0 0 24 24" width="24" height="24"><defs><clipPath id="_clipPath_tY20PIpioAx1K67dw6LLYBXUyFHc2D3L"><rect width="24" height="24"/></clipPath></defs><g clip-path="url(#_clipPath_tY20PIpioAx1K67dw6LLYBXUyFHc2D3L)"><g style="isolation:isolate"><rect x="7.909" y="0.804" width="2.182" height="12" transform="matrix(0.866,-0.5,0.5,0.866,-2.196,5.412)" fill="rgb(0,0,0)"/><rect x="5.713" y="3" width="2.182" height="12" transform="matrix(0.5,-0.866,0.866,0.5,-4.392,10.392)" fill="rgb(0,0,0)"/><rect x="4.909" y="6" width="2.182" height="12" transform="matrix(0,-1,1,0,-6,18)" fill="rgb(0,0,0)"/><rect x="5.713" y="9" width="2.182" height="12" transform="matrix(-0.5,-0.866,0.866,-0.5,-2.785,28.392)" fill="rgb(0,0,0)"/><rect x="7.909" y="11.196" width="2.182" height="12" transform="matrix(-0.866,-0.5,0.5,-0.866,8.196,36.588)" fill="rgb(0,0,0)"/><rect x="10.909" y="12" width="2.182" height="12" transform="matrix(-1,0,0,-1,24,36)" fill="rgb(0,0,0)"/><rect x="13.909" y="11.196" width="2.182" height="12" transform="matrix(-0.866,0.5,-0.5,-0.866,36.588,24.588)" fill="rgb(0,0,0)"/><rect x="16.105" y="9" width="2.182" height="12" transform="matrix(-0.5,0.866,-0.866,-0.5,38.785,7.608)" fill="rgb(0,0,0)"/><rect x="16.909" y="6" width="2.182" height="12" transform="matrix(0,1,-1,0,30,-6)" fill="rgb(0,0,0)"/><rect x="16.105" y="3" width="2.182" height="12" transform="matrix(0.5,0.866,-0.866,0.5,16.392,-10.392)" fill="rgb(0,0,0)"/><rect x="13.909" y="0.804" width="2.182" height="12" transform="matrix(0.866,0.5,-0.5,0.866,5.412,-6.588)" fill="rgb(0,0,0)"/><rect x="10.909" y="0" width="2.182" height="12" transform="matrix(1,0,0,1,0,0)" fill="rgb(0,0,0)"/></g><circle vector-effect="non-scaling-stroke" cx="11.999999999999993" cy="11.999999999999993" r="7.636363636363632" fill="rgb(255,255,255)" stroke-width="2" stroke="rgb(0,0,0)" stroke-linejoin="miter" stroke-linecap="square" stroke-miterlimit="3"/></g></svg>