<?xml version="1.0" standalone="no"?><!-- Generator: Gravit.io --><svg xmlns="http://www.w3.org/2000/svg" xmlns:xlink="http://www.w3.org/1999/xlink" style="isolation:isolate" viewBox="0 0 24 24" width="24" height="24"><defs><clipPath id="_clipPath_ImxfsET4nSgJ2ylpPRC5h5q1NiYY2zcg"><rect width="24" height="24"/></clipPath></defs><g clip-path="url(#_clipPath_ImxfsET4nSgJ2ylpPRC5h5q1NiYY2zcg)"><rect x="1" y="3" width="17" height="3" transform="matrix(1,0,0,1,0,0)" fill="rgb(0,0,0)"/><rect x="1" y="10.5" width="17" height="3" transform="matrix(1,0,0,1,0,0)" fill="rgb(0,0,0)"/><rect x="1" y="18" width="17" height="3" transform="matrix(1,0,0,1,0,0)" fill="rgb(0,0,0)"/><rect x="20" y="3" width="3" height="3" transform="matrix(1,0,0,1,0,0)" fill="rgb(0,0,0)"/><rect x="20" y="10.5" width="3" height="3" transform="matrix(1,0,0,1,0,0)" fill="rgb(0,0,0)"/><rect x="20" y="18" width="3" height="3" transform="matrix(1,0,0,1,0,0)" fill="rgb(0,0,0)"/></g></svg>